# xmcd
# 
# Track frame offsets:
#     150
#     10375
#     24630
#     37275
#     55000
#     66742
#     80170
#     92662
#     106217
#     122885
#     138412
#     154880
#     169662
#     182075
#     198162
#     210820
#     228187
#     243512
#     260847
#     274582
#     295862
#     312357
#     328995
#     341182
# 
# Disc length: 4765
# 
# Revision: 15
# Processed by: cddbd v1.5.2PL0 Copyright (c) Steve Scherf et al.
# Submitted via: fre:ac v1.0.31
# 
DISCID=6c129b18
DTITLE=Johnny Cash - The Legend, Disc 4
DYEAR=2010
DGENRE=Country
TTITLE0=Keep on the Sunny Side (with The Carter Family)
TTITLE1=Diamonds in the Rough (with Mother Maybelle Carter)
TTITLE2=(There'll Be) Peace in the Valley (with The Carter Family)
TTITLE3=Were You There (When They Crucified My Lord) (with The Carter Family)
TTITLE4=Another Man Done Gone (with Anita Carter)
TTITLE5=Pick the Wildwood Flower (with Mother Maybelle Carter)
TTITLE6=Jackson (with June Carter)
TTITLE7=If I Were a Carpenter (with June Carter Cash)
TTITLE8=Girl from the North Country (with Bob Dylan)
TTITLE9=One More Ride (with Marty Stuart)
TTITLE10=You Can't Beat Jesus Christ (with Billy Joe Shaver)
TTITLE11=There Ain't No Good Chain Gang (with Waylon Jennings)
TTITLE12=We Ought to Be Ashamed (with Elvis Costello)
TTITLE13=Crazy Old Soldier (with Ray Charles)
TTITLE14=Silver Haired Daddy of Mine (with Tommy Cash)
TTITLE15=Who's Gene Autry (with June Carter Cash)
TTITLE16=The Night Hank Williams Came to Town (with Waylon Jennings)
TTITLE17=I Walk the Line (Revisited) (with Rodney Crowell)
TTITLE18=Highwayman (as The Highwaymen with Willie Nelson, Kris Kristofferson and Waylon Jennings)
TTITLE19=The Wandererer (with U2)
TTITLE20=September When It Comes (with Rosanne Cash)
TTITLE21=Tears in the Holston River (with The Nitty Gritty Dirt Band)
TTITLE22=Far Side Banks of Jordan (with June Carter Cash)
TTITLE23=It Takes One to Know Me (with June Carter Cash and Carlene Carter)
EXTD=
EXTT0=
EXTT1=
EXTT2=
EXTT3=
EXTT4=
EXTT5=
EXTT6=
EXTT7=
EXTT8=
EXTT9=
EXTT10=
EXTT11=
EXTT12=
EXTT13=
EXTT14=
EXTT15=
EXTT16=
EXTT17=
EXTT18=
EXTT19=
EXTT20=
EXTT21=
EXTT22=
EXTT23=
PLAYORDER=
